<?xml version="1.0" encoding="UTF-8"?>
<svg width="302px" height="219px" viewBox="0 0 302 219" version="1.1" xmlns="http://www.w3.org/2000/svg" xmlns:xlink="http://www.w3.org/1999/xlink">
    <!-- Generator: Sketch 50.2 (55047) - http://www.bohemiancoding.com/sketch -->
    <title>Group 2</title>
    <desc>Created with Sketch.</desc>
    <defs></defs>
    <g id="Page-1" stroke="none" stroke-width="1" fill="none" fill-rule="evenodd">
        <g id="Desktop" transform="translate(-93.000000, -410.000000)">
            <g id="Group-2" transform="translate(93.000000, 410.000000)">
                <g id="Group" opacity="0.700948661" transform="translate(75.000000, 28.000000)" stroke="#979797">
                    <path d="M81.5,87.5 L31.5,154.5" id="Line-5" stroke-linecap="square"></path>
                    <polygon id="Polygon" points="81.1290415 0 162 59.3688104 131.110043 155.429563 31.1480405 155.429563 0.258083082 59.3688104"></polygon>
                    <path d="M0.5,59.5 L81.5,87.5" id="Line" stroke-linecap="square"></path>
                    <path d="M81.5,87.5 L161.5,59.5" id="Line-3" stroke-linecap="square"></path>
                    <path d="M81.5,87.5 L130.5,154.5" id="Line-4" stroke-linecap="square"></path>
                    <path d="M81.5,0.5 L81.5,87.5" id="Line-2" stroke-linecap="square"></path>
                </g>
                <path d="M156.587322,86 L179,107.5 L172,136.652476 L141,136.652476 L133.5,107.5 L156.587322,86 Z" id="Polygon-2" stroke="#979797" opacity="0.7" stroke-dasharray="3"></path>
                <path d="M156.5,61 L203,99 L185.5,155.5 L126.5,156 L107.5,98.5 L156.5,61 Z" id="Polygon-2" stroke="#979797" opacity="0.7" stroke-dasharray="3"></path>
                <path d="M94.1230566,93.892483 L113.302708,173.561803 L203.98685,180.914571 L203.004472,99.377225 L156.364766,45.3733549 L94.1230566,93.892483 Z" id="Rectangle" stroke="#7BD500" stroke-width="2" fill-opacity="0.1" fill="#7BD500"></path>
                <circle id="Oval" stroke="#B6B6B6" fill="#D9FAB4" cx="156.5" cy="28.5" r="3.5"></circle>
                <circle id="Oval" stroke="#B6B6B6" fill="#D9FAB4" cx="156.5" cy="61.5" r="3.5"></circle>
                <circle id="Oval" stroke="#B6B6B6" fill="#D9FAB4" cx="156.5" cy="85.5" r="3.5"></circle>
                <circle id="Oval" stroke="#B6B6B6" fill="#D9FAB4" opacity="0.98046875" cx="156.5" cy="115.5" r="3.5"></circle>
                <path d="M130.069,10.156 C129.349663,10.156 128.65417,10.058501 127.9825,9.8635 C127.31083,9.66849902 126.771335,9.41500156 126.364,9.103 L127.079,7.517 C127.469002,7.80300143 127.932664,8.0326658 128.47,8.206 C129.007336,8.3793342 129.544664,8.466 130.082,8.466 C130.680003,8.466 131.121999,8.37716755 131.408,8.1995 C131.694001,8.02183244 131.837,7.78566814 131.837,7.491 C131.837,7.27433225 131.752501,7.09450071 131.5835,6.9515 C131.414499,6.80849928 131.197835,6.6936671 130.9335,6.607 C130.669165,6.5203329 130.311669,6.42500052 129.861,6.321 C129.167663,6.15633251 128.600002,5.99166749 128.158,5.827 C127.715998,5.66233251 127.336835,5.39800182 127.0205,5.034 C126.704165,4.66999818 126.546,4.1846697 126.546,3.578 C126.546,3.04933069 126.688999,2.57050215 126.975,2.1415 C127.261001,1.71249786 127.692164,1.37233459 128.2685,1.121 C128.844836,0.86966541 129.548996,0.744 130.381,0.744 C130.96167,0.744 131.529331,0.81333264 132.084,0.952 C132.638669,1.09066736 133.123998,1.2899987 133.54,1.55 L132.89,3.149 C132.049329,2.67233095 131.208671,2.434 130.368,2.434 C129.778664,2.434 129.343168,2.52933238 129.0615,2.72 C128.779832,2.91066762 128.639,3.16199844 128.639,3.474 C128.639,3.78600156 128.801498,4.01783257 129.1265,4.1695 C129.451502,4.32116742 129.947663,4.47066593 130.615,4.618 C131.308337,4.78266749 131.875998,4.94733251 132.318,5.112 C132.760002,5.27666749 133.139165,5.53666489 133.4555,5.892 C133.771835,6.24733511 133.93,6.7283303 133.93,7.335 C133.93,7.8550026 133.784835,8.32949785 133.4945,8.7585 C133.204165,9.18750214 132.76867,9.52766541 132.188,9.779 C131.60733,10.0303346 130.901004,10.156 130.069,10.156 Z M139.741,9.662 C139.541666,9.80933407 139.296835,9.91983297 139.0065,9.9935 C138.716165,10.067167 138.410668,10.104 138.09,10.104 C137.257996,10.104 136.614502,9.89166879 136.1595,9.467 C135.704498,9.04233121 135.477,8.41833745 135.477,7.595 L135.477,4.722 L134.398,4.722 L134.398,3.162 L135.477,3.162 L135.477,1.459 L137.505,1.459 L137.505,3.162 L139.247,3.162 L139.247,4.722 L137.505,4.722 L137.505,7.569 C137.505,7.86366814 137.580833,8.09116587 137.7325,8.2515 C137.884167,8.41183413 138.098665,8.492 138.376,8.492 C138.696668,8.492 138.969666,8.4053342 139.195,8.232 L139.741,9.662 Z M142.822,3.929 C143.064668,3.59099831 143.391831,3.3353342 143.8035,3.162 C144.215169,2.9886658 144.689664,2.902 145.227,2.902 L145.227,4.774 C145.001666,4.75666658 144.85,4.748 144.772,4.748 C144.19133,4.748 143.736335,4.91049837 143.407,5.2355 C143.077665,5.56050163 142.913,6.04799675 142.913,6.698 L142.913,10 L140.885,10 L140.885,3.006 L142.822,3.006 L142.822,3.929 Z M149.309,2.902 C150.392339,2.902 151.22433,3.15983075 151.805,3.6755 C152.38567,4.19116924 152.676,4.9689948 152.676,6.009 L152.676,10 L150.778,10 L150.778,9.129 C150.396665,9.77900325 149.686005,10.104 148.646,10.104 C148.108664,10.104 147.642835,10.0130009 147.2485,9.831 C146.854165,9.64899909 146.553001,9.39766827 146.345,9.077 C146.136999,8.75633173 146.033,8.39233537 146.033,7.985 C146.033,7.33499675 146.277831,6.82366853 146.7675,6.451 C147.257169,6.07833147 148.013328,5.892 149.036,5.892 L150.648,5.892 C150.648,5.44999779 150.513668,5.10983453 150.245,4.8715 C149.976332,4.63316547 149.573336,4.514 149.036,4.514 C148.663331,4.514 148.297168,4.57249941 147.9375,4.6895 C147.577832,4.80650058 147.272335,4.96466567 147.021,5.164 L146.293,3.747 C146.674335,3.47833199 147.131497,3.27033407 147.6645,3.123 C148.197503,2.97566593 148.745664,2.902 149.309,2.902 Z M149.153,8.739 C149.499668,8.739 149.807332,8.65883413 150.076,8.4985 C150.344668,8.33816587 150.535333,8.10200156 150.648,7.79 L150.648,7.075 L149.257,7.075 C148.424996,7.075 148.009,7.34799727 148.009,7.894 C148.009,8.1540013 148.110832,8.35983257 148.3145,8.5115 C148.518168,8.66316743 148.797665,8.739 149.153,8.739 Z M159.02,9.662 C158.820666,9.80933407 158.575835,9.91983297 158.2855,9.9935 C157.995165,10.067167 157.689668,10.104 157.369,10.104 C156.536996,10.104 155.893502,9.89166879 155.4385,9.467 C154.983498,9.04233121 154.756,8.41833745 154.756,7.595 L154.756,4.722 L153.677,4.722 L153.677,3.162 L154.756,3.162 L154.756,1.459 L156.784,1.459 L156.784,3.162 L158.526,3.162 L158.526,4.722 L156.784,4.722 L156.784,7.569 C156.784,7.86366814 156.859833,8.09116587 157.0115,8.2515 C157.163167,8.41183413 157.377665,8.492 157.655,8.492 C157.975668,8.492 158.248666,8.4053342 158.474,8.232 L159.02,9.662 Z M167.015,6.529 C167.015,6.55500013 167.002,6.73699831 166.976,7.075 L161.685,7.075 C161.780334,7.5083355 162.005665,7.85066541 162.361,8.102 C162.716335,8.35333459 163.158331,8.479 163.687,8.479 C164.051002,8.479 164.373832,8.42483388 164.6555,8.3165 C164.937168,8.20816612 165.199332,8.03700117 165.442,7.803 L166.521,8.973 C165.86233,9.72700377 164.90034,10.104 163.635,10.104 C162.846329,10.104 162.14867,9.95016821 161.542,9.6425 C160.93533,9.33483179 160.467335,8.90800273 160.138,8.362 C159.808665,7.81599727 159.644,7.1963368 159.644,6.503 C159.644,5.81832991 159.806498,5.20083609 160.1315,4.6505 C160.456502,4.10016391 160.90283,3.6711682 161.4705,3.3635 C162.03817,3.05583179 162.672996,2.902 163.375,2.902 C164.05967,2.902 164.679331,3.04933186 165.234,3.344 C165.788669,3.63866814 166.224165,4.06116391 166.5405,4.6115 C166.856835,5.16183608 167.015,5.80099636 167.015,6.529 Z M163.388,4.436 C162.928664,4.436 162.543002,4.5659987 162.231,4.826 C161.918998,5.0860013 161.728334,5.44133108 161.659,5.892 L165.104,5.892 C165.034666,5.44999779 164.844002,5.09683465 164.532,4.8325 C164.219998,4.56816534 163.838669,4.436 163.388,4.436 Z M175.582,3.006 L175.582,8.83 C175.582,10.1126731 175.248337,11.0659969 174.581,11.69 C173.913663,12.3140031 172.938673,12.626 171.656,12.626 C170.979997,12.626 170.33867,12.5436675 169.732,12.379 C169.12533,12.2143325 168.622669,11.9760016 168.224,11.664 L169.03,10.208 C169.324668,10.4506679 169.697331,10.6434993 170.148,10.7865 C170.598669,10.9295007 171.049331,11.001 171.5,11.001 C172.202004,11.001 172.719832,10.8428349 173.0535,10.5265 C173.387168,10.2101651 173.554,9.73133654 173.554,9.09 L173.554,8.791 C173.025331,9.37166957 172.288671,9.662 171.344,9.662 C170.702663,9.662 170.115503,9.52116808 169.5825,9.2395 C169.049497,8.95783193 168.627002,8.56133589 168.315,8.05 C168.002998,7.53866411 167.847,6.94933667 167.847,6.282 C167.847,5.61466333 168.002998,5.02533589 168.315,4.514 C168.627002,4.00266411 169.049497,3.60616807 169.5825,3.3245 C170.115503,3.04283192 170.702663,2.902 171.344,2.902 C172.358005,2.902 173.129331,3.23566333 173.658,3.903 L173.658,3.006 L175.582,3.006 Z M171.747,7.998 C172.284336,7.998 172.724165,7.83983492 173.0665,7.5235 C173.408835,7.20716508 173.58,6.79333589 173.58,6.282 C173.58,5.77066411 173.408835,5.35683492 173.0665,5.0405 C172.724165,4.72416508 172.284336,4.566 171.747,4.566 C171.209664,4.566 170.767668,4.72416508 170.421,5.0405 C170.074332,5.35683492 169.901,5.77066411 169.901,6.282 C169.901,6.79333589 170.074332,7.20716508 170.421,7.5235 C170.767668,7.83983492 171.209664,7.998 171.747,7.998 Z M184.409,3.006 L181.25,10.429 C180.929332,11.235004 180.532836,11.802665 180.0605,12.132 C179.588164,12.461335 179.018337,12.626 178.351,12.626 C177.986998,12.626 177.627335,12.5696672 177.272,12.457 C176.916665,12.3443328 176.626334,12.1883343 176.401,11.989 L177.142,10.546 C177.298001,10.6846674 177.477832,10.7929996 177.6815,10.871 C177.885168,10.9490004 178.086666,10.988 178.286,10.988 C178.563335,10.988 178.788666,10.920834 178.962,10.7865 C179.135334,10.652166 179.291333,10.4290016 179.43,10.117 L179.456,10.052 L176.427,3.006 L178.52,3.006 L180.483,7.751 L182.459,3.006 L184.409,3.006 Z" id="Strategy" fill="#B1B1B1"></path>
                <path d="M4.069,92.156 C3.34966307,92.156 2.65417002,92.058501 1.9825,91.8635 C1.31082997,91.668499 0.77133537,91.4150016 0.364,91.103 L1.079,89.517 C1.46900195,89.8030014 1.93266398,90.0326658 2.47,90.206 C3.00733602,90.3793342 3.54466398,90.466 4.082,90.466 C4.68000299,90.466 5.12199857,90.3771676 5.408,90.1995 C5.69400143,90.0218324 5.837,89.7856681 5.837,89.491 C5.837,89.2743323 5.75250085,89.0945007 5.5835,88.9515 C5.41449916,88.8084993 5.19783466,88.6936671 4.9335,88.607 C4.66916535,88.5203329 4.31166892,88.4250005 3.861,88.321 C3.1676632,88.1563325 2.60000221,87.9916675 2.158,87.827 C1.71599779,87.6623325 1.33683492,87.3980018 1.0205,87.034 C0.704165085,86.6699982 0.546,86.1846697 0.546,85.578 C0.546,85.0493307 0.68899857,84.5705021 0.975,84.1415 C1.26100143,83.7124979 1.69216379,83.3723346 2.2685,83.121 C2.84483622,82.8696654 3.54899584,82.744 4.381,82.744 C4.96166957,82.744 5.52933056,82.8133326 6.084,82.952 C6.63866944,83.0906674 7.12399792,83.2899987 7.54,83.55 L6.89,85.149 C6.04932913,84.672331 5.20867087,84.434 4.368,84.434 C3.77866372,84.434 3.34316808,84.5293324 3.0615,84.72 C2.77983192,84.9106676 2.639,85.1619984 2.639,85.474 C2.639,85.7860016 2.80149838,86.0178326 3.1265,86.1695 C3.45150163,86.3211674 3.94766333,86.4706659 4.615,86.618 C5.3083368,86.7826675 5.87599779,86.9473325 6.318,87.112 C6.76000221,87.2766675 7.13916509,87.5366649 7.4555,87.892 C7.77183492,88.2473351 7.93,88.7283303 7.93,89.335 C7.93,89.8550026 7.78483479,90.3294979 7.4945,90.7585 C7.20416522,91.1875021 6.76866957,91.5276654 6.188,91.779 C5.60733043,92.0303346 4.90100416,92.156 4.069,92.156 Z M16.276,85.006 L16.276,92 L14.352,92 L14.352,91.168 C14.083332,91.4713349 13.7626685,91.7031659 13.39,91.8635 C13.0173315,92.0238341 12.6143355,92.104 12.181,92.104 C11.2623287,92.104 10.534336,91.8396693 9.997,91.311 C9.45966398,90.7823307 9.191,89.9980052 9.191,88.958 L9.191,85.006 L11.219,85.006 L11.219,88.659 C11.219,89.7856723 11.6913286,90.349 12.636,90.349 C13.1213358,90.349 13.5113319,90.1908349 13.806,89.8745 C14.1006681,89.5581651 14.248,89.0880031 14.248,88.464 L14.248,85.006 L16.276,85.006 Z M20.098,85.929 C20.3406679,85.5909983 20.6678313,85.3353342 21.0795,85.162 C21.4911687,84.9886658 21.965664,84.902 22.503,84.902 L22.503,86.774 C22.2776655,86.7566666 22.1260004,86.748 22.048,86.748 C21.4673304,86.748 21.012335,86.9104984 20.683,87.2355 C20.353665,87.5605016 20.189,88.0479967 20.189,88.698 L20.189,92 L18.161,92 L18.161,85.006 L20.098,85.006 L20.098,85.929 Z M25.987,85.162 L27.781,85.162 L27.781,86.722 L26.039,86.722 L26.039,92 L24.011,92 L24.011,86.722 L22.932,86.722 L22.932,85.162 L24.011,85.162 L24.011,84.85 C24.011,84.0526627 24.2471643,83.4200023 24.7195,82.952 C25.1918357,82.4839977 25.8569957,82.25 26.715,82.25 C27.0183349,82.25 27.3064986,82.2824997 27.5795,82.3475 C27.8525014,82.4125003 28.0799991,82.5056661 28.262,82.627 L27.729,84.096 C27.4949988,83.9313325 27.2220016,83.849 26.91,83.849 C26.2946636,83.849 25.987,84.1869966 25.987,84.863 L25.987,85.162 Z M31.616,84.902 C32.6993388,84.902 33.5313304,85.1598308 34.112,85.6755 C34.6926696,86.1911692 34.983,86.9689948 34.983,88.009 L34.983,92 L33.085,92 L33.085,91.129 C32.7036648,91.7790033 31.9930052,92.104 30.953,92.104 C30.415664,92.104 29.9498353,92.0130009 29.5555,91.831 C29.1611647,91.6489991 28.860001,91.3976683 28.652,91.077 C28.443999,90.7563317 28.34,90.3923354 28.34,89.985 C28.34,89.3349968 28.5848309,88.8236685 29.0745,88.451 C29.5641691,88.0783315 30.3203282,87.892 31.343,87.892 L32.955,87.892 C32.955,87.4499978 32.820668,87.1098345 32.552,86.8715 C32.283332,86.6331655 31.880336,86.514 31.343,86.514 C30.9703315,86.514 30.6041685,86.5724994 30.2445,86.6895 C29.8848315,86.8065006 29.5793346,86.9646657 29.328,87.164 L28.6,85.747 C28.9813352,85.478332 29.4384973,85.2703341 29.9715,85.123 C30.5045027,84.9756659 31.0526639,84.902 31.616,84.902 Z M31.46,90.739 C31.8066684,90.739 32.114332,90.6588341 32.383,90.4985 C32.651668,90.3381659 32.8423328,90.1020016 32.955,89.79 L32.955,89.075 L31.564,89.075 C30.7319958,89.075 30.316,89.3479973 30.316,89.894 C30.316,90.1540013 30.4178323,90.3598326 30.6215,90.5115 C30.8251677,90.6631674 31.1046649,90.739 31.46,90.739 Z M40.196,92.104 C39.4506629,92.104 38.7811696,91.9501682 38.1875,91.6425 C37.5938304,91.3348318 37.1301683,90.9080027 36.7965,90.362 C36.4628317,89.8159973 36.296,89.1963368 36.296,88.503 C36.296,87.8096632 36.4628317,87.1900027 36.7965,86.644 C37.1301683,86.0979973 37.5938304,85.6711682 38.1875,85.3635 C38.7811696,85.0558318 39.4506629,84.902 40.196,84.902 C40.9326704,84.902 41.5761639,85.0558318 42.1265,85.3635 C42.6768361,85.6711682 43.0776654,86.1109971 43.329,86.683 L41.756,87.528 C41.3919982,86.8866635 40.8676701,86.566 40.183,86.566 C39.6543307,86.566 39.2166684,86.7393316 38.87,87.086 C38.5233316,87.4326684 38.35,87.904997 38.35,88.503 C38.35,89.101003 38.5233316,89.5733316 38.87,89.92 C39.2166684,90.2666684 39.6543307,90.44 40.183,90.44 C40.8763368,90.44 41.4006649,90.1193365 41.756,89.478 L43.329,90.336 C43.0776654,90.8906694 42.6768361,91.3239984 42.1265,91.636 C41.5761639,91.9480016 40.9326704,92.104 40.196,92.104 Z M51.35,88.529 C51.35,88.5550001 51.3370001,88.7369983 51.311,89.075 L46.02,89.075 C46.1153338,89.5083355 46.3406649,89.8506654 46.696,90.102 C47.0513351,90.3533346 47.4933307,90.479 48.022,90.479 C48.3860018,90.479 48.7088319,90.4248339 48.9905,90.3165 C49.2721681,90.2081661 49.5343321,90.0370012 49.777,89.803 L50.856,90.973 C50.19733,91.7270038 49.2353397,92.104 47.97,92.104 C47.1813294,92.104 46.4836697,91.9501682 45.877,91.6425 C45.2703303,91.3348318 44.802335,90.9080027 44.473,90.362 C44.143665,89.8159973 43.979,89.1963368 43.979,88.503 C43.979,87.8183299 44.1414984,87.2008361 44.4665,86.6505 C44.7915016,86.1001639 45.2378305,85.6711682 45.8055,85.3635 C46.3731695,85.0558318 47.0079965,84.902 47.71,84.902 C48.3946701,84.902 49.0143306,85.0493319 49.569,85.344 C50.1236694,85.6386681 50.5591651,86.0611639 50.8755,86.6115 C51.1918349,87.1618361 51.35,87.8009964 51.35,88.529 Z M47.723,86.436 C47.2636644,86.436 46.8780016,86.5659987 46.566,86.826 C46.2539984,87.0860013 46.0633337,87.4413311 45.994,87.892 L49.439,87.892 C49.3696663,87.4499978 49.1790016,87.0968347 48.867,86.8325 C48.5549984,86.5681653 48.1736689,86.436 47.723,86.436 Z" id="Surface" fill="#B1B1B1"></path>
                <path d="M264.069,92.156 C263.349663,92.156 262.65417,92.058501 261.9825,91.8635 C261.31083,91.668499 260.771335,91.4150016 260.364,91.103 L261.079,89.517 C261.469002,89.8030014 261.932664,90.0326658 262.47,90.206 C263.007336,90.3793342 263.544664,90.466 264.082,90.466 C264.680003,90.466 265.121999,90.3771676 265.408,90.1995 C265.694001,90.0218324 265.837,89.7856681 265.837,89.491 C265.837,89.2743323 265.752501,89.0945007 265.5835,88.9515 C265.414499,88.8084993 265.197835,88.6936671 264.9335,88.607 C264.669165,88.5203329 264.311669,88.4250005 263.861,88.321 C263.167663,88.1563325 262.600002,87.9916675 262.158,87.827 C261.715998,87.6623325 261.336835,87.3980018 261.0205,87.034 C260.704165,86.6699982 260.546,86.1846697 260.546,85.578 C260.546,85.0493307 260.688999,84.5705021 260.975,84.1415 C261.261001,83.7124979 261.692164,83.3723346 262.2685,83.121 C262.844836,82.8696654 263.548996,82.744 264.381,82.744 C264.96167,82.744 265.529331,82.8133326 266.084,82.952 C266.638669,83.0906674 267.123998,83.2899987 267.54,83.55 L266.89,85.149 C266.049329,84.672331 265.208671,84.434 264.368,84.434 C263.778664,84.434 263.343168,84.5293324 263.0615,84.72 C262.779832,84.9106676 262.639,85.1619984 262.639,85.474 C262.639,85.7860016 262.801498,86.0178326 263.1265,86.1695 C263.451502,86.3211674 263.947663,86.4706659 264.615,86.618 C265.308337,86.7826675 265.875998,86.9473325 266.318,87.112 C266.760002,87.2766675 267.139165,87.5366649 267.4555,87.892 C267.771835,88.2473351 267.93,88.7283303 267.93,89.335 C267.93,89.8550026 267.784835,90.3294979 267.4945,90.7585 C267.204165,91.1875021 266.76867,91.5276654 266.188,91.779 C265.60733,92.0303346 264.901004,92.156 264.069,92.156 Z M272.61,92.104 C271.864663,92.104 271.19517,91.9501682 270.6015,91.6425 C270.00783,91.3348318 269.544168,90.9080027 269.2105,90.362 C268.876832,89.8159973 268.71,89.1963368 268.71,88.503 C268.71,87.8096632 268.876832,87.1900027 269.2105,86.644 C269.544168,86.0979973 270.00783,85.6711682 270.6015,85.3635 C271.19517,85.0558318 271.864663,84.902 272.61,84.902 C273.34667,84.902 273.990164,85.0558318 274.5405,85.3635 C275.090836,85.6711682 275.491665,86.1109971 275.743,86.683 L274.17,87.528 C273.805998,86.8866635 273.28167,86.566 272.597,86.566 C272.068331,86.566 271.630668,86.7393316 271.284,87.086 C270.937332,87.4326684 270.764,87.904997 270.764,88.503 C270.764,89.101003 270.937332,89.5733316 271.284,89.92 C271.630668,90.2666684 272.068331,90.44 272.597,90.44 C273.290337,90.44 273.814665,90.1193365 274.17,89.478 L275.743,90.336 C275.491665,90.8906694 275.090836,91.3239984 274.5405,91.636 C273.990164,91.9480016 273.34667,92.104 272.61,92.104 Z M280.241,92.104 C279.50433,92.104 278.843503,91.9501682 278.2585,91.6425 C277.673497,91.3348318 277.216335,90.9080027 276.887,90.362 C276.557665,89.8159973 276.393,89.1963368 276.393,88.503 C276.393,87.8096632 276.557665,87.1900027 276.887,86.644 C277.216335,86.0979973 277.673497,85.6711682 278.2585,85.3635 C278.843503,85.0558318 279.50433,84.902 280.241,84.902 C280.97767,84.902 281.63633,85.0558318 282.217,85.3635 C282.79767,85.6711682 283.252665,86.0979973 283.582,86.644 C283.911335,87.1900027 284.076,87.8096632 284.076,88.503 C284.076,89.1963368 283.911335,89.8159973 283.582,90.362 C283.252665,90.9080027 282.79767,91.3348318 282.217,91.6425 C281.63633,91.9501682 280.97767,92.104 280.241,92.104 Z M280.241,90.44 C280.761003,90.44 281.187832,90.2645018 281.5215,89.9135 C281.855168,89.5624982 282.022,89.0923363 282.022,88.503 C282.022,87.9136637 281.855168,87.4435018 281.5215,87.0925 C281.187832,86.7414982 280.761003,86.566 280.241,86.566 C279.720997,86.566 279.292002,86.7414982 278.954,87.0925 C278.615998,87.4435018 278.447,87.9136637 278.447,88.503 C278.447,89.0923363 278.615998,89.5624982 278.954,89.9135 C279.292002,90.2645018 279.720997,90.44 280.241,90.44 Z M289.562,84.902 C290.212003,84.902 290.803497,85.0514985 291.3365,85.3505 C291.869503,85.6495015 292.287665,86.0698306 292.591,86.6115 C292.894335,87.1531694 293.046,87.7836631 293.046,88.503 C293.046,89.2223369 292.894335,89.8528306 292.591,90.3945 C292.287665,90.9361694 291.869503,91.3564985 291.3365,91.6555 C290.803497,91.9545015 290.212003,92.104 289.562,92.104 C288.669329,92.104 287.967336,91.8223361 287.456,91.259 L287.456,94.522 L285.428,94.522 L285.428,85.006 L287.365,85.006 L287.365,85.812 C287.867669,85.2053303 288.599995,84.902 289.562,84.902 Z M289.211,90.44 C289.731003,90.44 290.157832,90.2645018 290.4915,89.9135 C290.825168,89.5624982 290.992,89.0923363 290.992,88.503 C290.992,87.9136637 290.825168,87.4435018 290.4915,87.0925 C290.157832,86.7414982 289.731003,86.566 289.211,86.566 C288.690997,86.566 288.264168,86.7414982 287.9305,87.0925 C287.596832,87.4435018 287.43,87.9136637 287.43,88.503 C287.43,89.0923363 287.596832,89.5624982 287.9305,89.9135 C288.264168,90.2645018 288.690997,90.44 289.211,90.44 Z M301.249,88.529 C301.249,88.5550001 301.236,88.7369983 301.21,89.075 L295.919,89.075 C296.014334,89.5083355 296.239665,89.8506654 296.595,90.102 C296.950335,90.3533346 297.392331,90.479 297.921,90.479 C298.285002,90.479 298.607832,90.4248339 298.8895,90.3165 C299.171168,90.2081661 299.433332,90.0370012 299.676,89.803 L300.755,90.973 C300.09633,91.7270038 299.13434,92.104 297.869,92.104 C297.080329,92.104 296.38267,91.9501682 295.776,91.6425 C295.16933,91.3348318 294.701335,90.9080027 294.372,90.362 C294.042665,89.8159973 293.878,89.1963368 293.878,88.503 C293.878,87.8183299 294.040498,87.2008361 294.3655,86.6505 C294.690502,86.1001639 295.13683,85.6711682 295.7045,85.3635 C296.27217,85.0558318 296.906996,84.902 297.609,84.902 C298.29367,84.902 298.913331,85.0493319 299.468,85.344 C300.022669,85.6386681 300.458165,86.0611639 300.7745,86.6115 C301.090835,87.1618361 301.249,87.8009964 301.249,88.529 Z M297.622,86.436 C297.162664,86.436 296.777002,86.5659987 296.465,86.826 C296.152998,87.0860013 295.962334,87.4413311 295.893,87.892 L299.338,87.892 C299.268666,87.4499978 299.078002,87.0968347 298.766,86.8325 C298.453998,86.5681653 298.072669,86.436 297.622,86.436 Z" id="Scope" fill="#B1B1B1"></path>
                <path d="M68.069,218.156 C67.3496631,218.156 66.65417,218.058501 65.9825,217.8635 C65.31083,217.668499 64.7713354,217.415002 64.364,217.103 L65.079,215.517 C65.469002,215.803001 65.932664,216.032666 66.47,216.206 C67.007336,216.379334 67.544664,216.466 68.082,216.466 C68.680003,216.466 69.1219986,216.377168 69.408,216.1995 C69.6940014,216.021832 69.837,215.785668 69.837,215.491 C69.837,215.274332 69.7525008,215.094501 69.5835,214.9515 C69.4144992,214.808499 69.1978347,214.693667 68.9335,214.607 C68.6691653,214.520333 68.3116689,214.425001 67.861,214.321 C67.1676632,214.156333 66.6000022,213.991667 66.158,213.827 C65.7159978,213.662333 65.3368349,213.398002 65.0205,213.034 C64.7041651,212.669998 64.546,212.18467 64.546,211.578 C64.546,211.049331 64.6889986,210.570502 64.975,210.1415 C65.2610014,209.712498 65.6921638,209.372335 66.2685,209.121 C66.8448362,208.869665 67.5489958,208.744 68.381,208.744 C68.9616696,208.744 69.5293306,208.813333 70.084,208.952 C70.6386694,209.090667 71.1239979,209.289999 71.54,209.55 L70.89,211.149 C70.0493291,210.672331 69.2086709,210.434 68.368,210.434 C67.7786637,210.434 67.3431681,210.529332 67.0615,210.72 C66.7798319,210.910668 66.639,211.161998 66.639,211.474 C66.639,211.786002 66.8014984,212.017833 67.1265,212.1695 C67.4515016,212.321167 67.9476633,212.470666 68.615,212.618 C69.3083368,212.782667 69.8759978,212.947333 70.318,213.112 C70.7600022,213.276667 71.1391651,213.536665 71.4555,213.892 C71.7718349,214.247335 71.93,214.72833 71.93,215.335 C71.93,215.855003 71.7848348,216.329498 71.4945,216.7585 C71.2041652,217.187502 70.7686696,217.527665 70.188,217.779 C69.6073304,218.030335 68.9010042,218.156 68.069,218.156 Z M76.233,215.257 L75.258,216.219 L75.258,218 L73.23,218 L73.23,208.354 L75.258,208.354 L75.258,213.814 L78.222,211.006 L80.64,211.006 L77.728,213.97 L80.9,218 L78.443,218 L76.233,215.257 Z M88.661,214.529 C88.661,214.555 88.6480001,214.736998 88.622,215.075 L83.331,215.075 C83.4263338,215.508335 83.6516649,215.850665 84.007,216.102 C84.3623351,216.353335 84.8043307,216.479 85.333,216.479 C85.6970018,216.479 86.0198319,216.424834 86.3015,216.3165 C86.5831681,216.208166 86.8453321,216.037001 87.088,215.803 L88.167,216.973 C87.50833,217.727004 86.5463397,218.104 85.281,218.104 C84.4923294,218.104 83.7946697,217.950168 83.188,217.6425 C82.5813303,217.334832 82.113335,216.908003 81.784,216.362 C81.454665,215.815997 81.29,215.196337 81.29,214.503 C81.29,213.81833 81.4524984,213.200836 81.7775,212.6505 C82.1025016,212.100164 82.5488305,211.671168 83.1165,211.3635 C83.6841695,211.055832 84.3189965,210.902 85.021,210.902 C85.7056701,210.902 86.3253306,211.049332 86.88,211.344 C87.4346694,211.638668 87.8701651,212.061164 88.1865,212.6115 C88.5028349,213.161836 88.661,213.800996 88.661,214.529 Z M85.034,212.436 C84.5746644,212.436 84.1890016,212.565999 83.877,212.826 C83.5649984,213.086001 83.3743337,213.441331 83.305,213.892 L86.75,213.892 C86.6806663,213.449998 86.4900016,213.096835 86.178,212.8325 C85.8659984,212.568165 85.4846689,212.436 85.034,212.436 Z M90.013,208.354 L92.041,208.354 L92.041,218 L90.013,218 L90.013,208.354 Z M100.777,214.529 C100.777,214.555 100.764,214.736998 100.738,215.075 L95.447,215.075 C95.5423338,215.508335 95.7676649,215.850665 96.123,216.102 C96.4783351,216.353335 96.9203307,216.479 97.449,216.479 C97.8130018,216.479 98.1358319,216.424834 98.4175,216.3165 C98.6991681,216.208166 98.9613321,216.037001 99.204,215.803 L100.283,216.973 C99.62433,217.727004 98.6623397,218.104 97.397,218.104 C96.6083294,218.104 95.9106697,217.950168 95.304,217.6425 C94.6973303,217.334832 94.229335,216.908003 93.9,216.362 C93.570665,215.815997 93.406,215.196337 93.406,214.503 C93.406,213.81833 93.5684984,213.200836 93.8935,212.6505 C94.2185016,212.100164 94.6648305,211.671168 95.2325,211.3635 C95.8001695,211.055832 96.4349965,210.902 97.137,210.902 C97.8216701,210.902 98.4413306,211.049332 98.996,211.344 C99.5506694,211.638668 99.9861651,212.061164 100.3025,212.6115 C100.618835,213.161836 100.777,213.800996 100.777,214.529 Z M97.15,212.436 C96.6906644,212.436 96.3050016,212.565999 95.993,212.826 C95.6809984,213.086001 95.4903337,213.441331 95.421,213.892 L98.866,213.892 C98.7966663,213.449998 98.6060016,213.096835 98.294,212.8325 C97.9819984,212.568165 97.6006689,212.436 97.15,212.436 Z M106.64,217.662 C106.440666,217.809334 106.195835,217.919833 105.9055,217.9935 C105.615165,218.067167 105.309668,218.104 104.989,218.104 C104.156996,218.104 103.513502,217.891669 103.0585,217.467 C102.603498,217.042331 102.376,216.418337 102.376,215.595 L102.376,212.722 L101.297,212.722 L101.297,211.162 L102.376,211.162 L102.376,209.459 L104.404,209.459 L104.404,211.162 L106.146,211.162 L106.146,212.722 L104.404,212.722 L104.404,215.569 C104.404,215.863668 104.479833,216.091166 104.6315,216.2515 C104.783167,216.411834 104.997665,216.492 105.275,216.492 C105.595668,216.492 105.868666,216.405334 106.094,216.232 L106.64,217.662 Z M111.112,218.104 C110.37533,218.104 109.714503,217.950168 109.1295,217.6425 C108.544497,217.334832 108.087335,216.908003 107.758,216.362 C107.428665,215.815997 107.264,215.196337 107.264,214.503 C107.264,213.809663 107.428665,213.190003 107.758,212.644 C108.087335,212.097997 108.544497,211.671168 109.1295,211.3635 C109.714503,211.055832 110.37533,210.902 111.112,210.902 C111.84867,210.902 112.50733,211.055832 113.088,211.3635 C113.66867,211.671168 114.123665,212.097997 114.453,212.644 C114.782335,213.190003 114.947,213.809663 114.947,214.503 C114.947,215.196337 114.782335,215.815997 114.453,216.362 C114.123665,216.908003 113.66867,217.334832 113.088,217.6425 C112.50733,217.950168 111.84867,218.104 111.112,218.104 Z M111.112,216.44 C111.632003,216.44 112.058832,216.264502 112.3925,215.9135 C112.726168,215.562498 112.893,215.092336 112.893,214.503 C112.893,213.913664 112.726168,213.443502 112.3925,213.0925 C112.058832,212.741498 111.632003,212.566 111.112,212.566 C110.591997,212.566 110.163002,212.741498 109.825,213.0925 C109.486998,213.443502 109.318,213.913664 109.318,214.503 C109.318,215.092336 109.486998,215.562498 109.825,215.9135 C110.163002,216.264502 110.591997,216.44 111.112,216.44 Z M120.55,210.902 C121.416671,210.902 122.116497,211.161997 122.6495,211.682 C123.182503,212.202003 123.449,212.973328 123.449,213.996 L123.449,218 L121.421,218 L121.421,214.308 C121.421,213.753331 121.299668,213.339501 121.057,213.0665 C120.814332,212.793499 120.463336,212.657 120.004,212.657 C119.492664,212.657 119.085335,212.815165 118.782,213.1315 C118.478665,213.447835 118.327,213.917997 118.327,214.542 L118.327,218 L116.299,218 L116.299,211.006 L118.236,211.006 L118.236,211.825 C118.504668,211.530332 118.838331,211.302834 119.237,211.1425 C119.635669,210.982166 120.073331,210.902 120.55,210.902 Z" id="Skeleton" fill="#B1B1B1"></path>
                <path d="M195.069,218.156 C194.349663,218.156 193.65417,218.058501 192.9825,217.8635 C192.31083,217.668499 191.771335,217.415002 191.364,217.103 L192.079,215.517 C192.469002,215.803001 192.932664,216.032666 193.47,216.206 C194.007336,216.379334 194.544664,216.466 195.082,216.466 C195.680003,216.466 196.121999,216.377168 196.408,216.1995 C196.694001,216.021832 196.837,215.785668 196.837,215.491 C196.837,215.274332 196.752501,215.094501 196.5835,214.9515 C196.414499,214.808499 196.197835,214.693667 195.9335,214.607 C195.669165,214.520333 195.311669,214.425001 194.861,214.321 C194.167663,214.156333 193.600002,213.991667 193.158,213.827 C192.715998,213.662333 192.336835,213.398002 192.0205,213.034 C191.704165,212.669998 191.546,212.18467 191.546,211.578 C191.546,211.049331 191.688999,210.570502 191.975,210.1415 C192.261001,209.712498 192.692164,209.372335 193.2685,209.121 C193.844836,208.869665 194.548996,208.744 195.381,208.744 C195.96167,208.744 196.529331,208.813333 197.084,208.952 C197.638669,209.090667 198.123998,209.289999 198.54,209.55 L197.89,211.149 C197.049329,210.672331 196.208671,210.434 195.368,210.434 C194.778664,210.434 194.343168,210.529332 194.0615,210.72 C193.779832,210.910668 193.639,211.161998 193.639,211.474 C193.639,211.786002 193.801498,212.017833 194.1265,212.1695 C194.451502,212.321167 194.947663,212.470666 195.615,212.618 C196.308337,212.782667 196.875998,212.947333 197.318,213.112 C197.760002,213.276667 198.139165,213.536665 198.4555,213.892 C198.771835,214.247335 198.93,214.72833 198.93,215.335 C198.93,215.855003 198.784835,216.329498 198.4945,216.7585 C198.204165,217.187502 197.76867,217.527665 197.188,217.779 C196.60733,218.030335 195.901004,218.156 195.069,218.156 Z M204.741,217.662 C204.541666,217.809334 204.296835,217.919833 204.0065,217.9935 C203.716165,218.067167 203.410668,218.104 203.09,218.104 C202.257996,218.104 201.614502,217.891669 201.1595,217.467 C200.704498,217.042331 200.477,216.418337 200.477,215.595 L200.477,212.722 L199.398,212.722 L199.398,211.162 L200.477,211.162 L200.477,209.459 L202.505,209.459 L202.505,211.162 L204.247,211.162 L204.247,212.722 L202.505,212.722 L202.505,215.569 C202.505,215.863668 202.580833,216.091166 202.7325,216.2515 C202.884167,216.411834 203.098665,216.492 203.376,216.492 C203.696668,216.492 203.969666,216.405334 204.195,216.232 L204.741,217.662 Z M207.822,211.929 C208.064668,211.590998 208.391831,211.335334 208.8035,211.162 C209.215169,210.988666 209.689664,210.902 210.227,210.902 L210.227,212.774 C210.001666,212.756667 209.85,212.748 209.772,212.748 C209.19133,212.748 208.736335,212.910498 208.407,213.2355 C208.077665,213.560502 207.913,214.047997 207.913,214.698 L207.913,218 L205.885,218 L205.885,211.006 L207.822,211.006 L207.822,211.929 Z M218.534,211.006 L218.534,218 L216.61,218 L216.61,217.168 C216.341332,217.471335 216.020669,217.703166 215.648,217.8635 C215.275331,218.023834 214.872336,218.104 214.439,218.104 C213.520329,218.104 212.792336,217.839669 212.255,217.311 C211.717664,216.782331 211.449,215.998005 211.449,214.958 L211.449,211.006 L213.477,211.006 L213.477,214.659 C213.477,215.785672 213.949329,216.349 214.894,216.349 C215.379336,216.349 215.769332,216.190835 216.064,215.8745 C216.358668,215.558165 216.506,215.088003 216.506,214.464 L216.506,211.006 L218.534,211.006 Z M223.799,218.104 C223.053663,218.104 222.38417,217.950168 221.7905,217.6425 C221.19683,217.334832 220.733168,216.908003 220.3995,216.362 C220.065832,215.815997 219.899,215.196337 219.899,214.503 C219.899,213.809663 220.065832,213.190003 220.3995,212.644 C220.733168,212.097997 221.19683,211.671168 221.7905,211.3635 C222.38417,211.055832 223.053663,210.902 223.799,210.902 C224.53567,210.902 225.179164,211.055832 225.7295,211.3635 C226.279836,211.671168 226.680665,212.110997 226.932,212.683 L225.359,213.528 C224.994998,212.886663 224.47067,212.566 223.786,212.566 C223.257331,212.566 222.819668,212.739332 222.473,213.086 C222.126332,213.432668 221.953,213.904997 221.953,214.503 C221.953,215.101003 222.126332,215.573332 222.473,215.92 C222.819668,216.266668 223.257331,216.44 223.786,216.44 C224.479337,216.44 225.003665,216.119337 225.359,215.478 L226.932,216.336 C226.680665,216.890669 226.279836,217.323998 225.7295,217.636 C225.179164,217.948002 224.53567,218.104 223.799,218.104 Z M232.613,217.662 C232.413666,217.809334 232.168835,217.919833 231.8785,217.9935 C231.588165,218.067167 231.282668,218.104 230.962,218.104 C230.129996,218.104 229.486502,217.891669 229.0315,217.467 C228.576498,217.042331 228.349,216.418337 228.349,215.595 L228.349,212.722 L227.27,212.722 L227.27,211.162 L228.349,211.162 L228.349,209.459 L230.377,209.459 L230.377,211.162 L232.119,211.162 L232.119,212.722 L230.377,212.722 L230.377,215.569 C230.377,215.863668 230.452833,216.091166 230.6045,216.2515 C230.756167,216.411834 230.970665,216.492 231.248,216.492 C231.568668,216.492 231.841666,216.405334 232.067,216.232 L232.613,217.662 Z M240.803,211.006 L240.803,218 L238.879,218 L238.879,217.168 C238.610332,217.471335 238.289669,217.703166 237.917,217.8635 C237.544331,218.023834 237.141335,218.104 236.708,218.104 C235.789329,218.104 235.061336,217.839669 234.524,217.311 C233.986664,216.782331 233.718,215.998005 233.718,214.958 L233.718,211.006 L235.746,211.006 L235.746,214.659 C235.746,215.785672 236.218329,216.349 237.163,216.349 C237.648336,216.349 238.038332,216.190835 238.333,215.8745 C238.627668,215.558165 238.775,215.088003 238.775,214.464 L238.775,211.006 L240.803,211.006 Z M244.625,211.929 C244.867668,211.590998 245.194831,211.335334 245.6065,211.162 C246.018169,210.988666 246.492664,210.902 247.03,210.902 L247.03,212.774 C246.804666,212.756667 246.653,212.748 246.575,212.748 C245.99433,212.748 245.539335,212.910498 245.21,213.2355 C244.880665,213.560502 244.716,214.047997 244.716,214.698 L244.716,218 L242.688,218 L242.688,211.006 L244.625,211.006 L244.625,211.929 Z M255.142,214.529 C255.142,214.555 255.129,214.736998 255.103,215.075 L249.812,215.075 C249.907334,215.508335 250.132665,215.850665 250.488,216.102 C250.843335,216.353335 251.285331,216.479 251.814,216.479 C252.178002,216.479 252.500832,216.424834 252.7825,216.3165 C253.064168,216.208166 253.326332,216.037001 253.569,215.803 L254.648,216.973 C253.98933,217.727004 253.02734,218.104 251.762,218.104 C250.973329,218.104 250.27567,217.950168 249.669,217.6425 C249.06233,217.334832 248.594335,216.908003 248.265,216.362 C247.935665,215.815997 247.771,215.196337 247.771,214.503 C247.771,213.81833 247.933498,213.200836 248.2585,212.6505 C248.583502,212.100164 249.02983,211.671168 249.5975,211.3635 C250.16517,211.055832 250.799996,210.902 251.502,210.902 C252.18667,210.902 252.806331,211.049332 253.361,211.344 C253.915669,211.638668 254.351165,212.061164 254.6675,212.6115 C254.983835,213.161836 255.142,213.800996 255.142,214.529 Z M251.515,212.436 C251.055664,212.436 250.670002,212.565999 250.358,212.826 C250.045998,213.086001 249.855334,213.441331 249.786,213.892 L253.231,213.892 C253.161666,213.449998 252.971002,213.096835 252.659,212.8325 C252.346998,212.568165 251.965669,212.436 251.515,212.436 Z" id="Structure" fill="#B1B1B1"></path>
            </g>
        </g>
    </g>
</svg>